<svg width="256" height="256" fill="none" xmlns="http://www.w3.org/2000/svg"><rect width="256" height="256" rx="30" fill="#0A0A0A"/><g filter="url(#a)" fill="#FEE102"><path d="M85.998 110.374c.223.075 5.371-9.997 11.489-22.381 6.117-12.31 11.34-22.381 11.563-22.381.224 0 5.372 9.922 22.307 44.389l24.47 3.581c13.504 2.015 24.694 3.805 24.918 4.029.224.149-7.684 8.132-35.437 35.064l4.178 24.545c2.387 13.503 4.103 24.619 3.954 24.769-.149.074-10.221-5.074-44.315-22.979l-22.008 11.564c-12.086 6.341-22.158 11.489-22.307 11.34-.224-.075 1.567-11.191 8.132-49.239l-17.905-17.308c-9.848-9.55-17.756-17.532-17.532-17.756.223-.224 11.116-1.94 24.246-3.805 13.13-1.865 24.023-3.432 24.247-3.432ZM133.371 50.318c3.731-2.09 4.85-3.134 6.715-6.64 1.193-2.313 2.387-4.178 2.611-4.178.224 0 1.417 1.865 2.611 4.178 1.716 3.133 3.059 4.55 5.595 5.894 1.866.97 3.88 2.088 4.477 2.536.895.522.074 1.194-3.432 3.134-3.805 2.089-4.999 3.282-6.714 6.49-1.194 2.164-2.313 3.954-2.537 3.954-.224-.074-1.418-1.94-2.611-4.178-1.865-3.431-2.984-4.476-11.191-8.803l4.476-2.387ZM192.234 81.651l4.477-8.355c2.536-4.626 4.7-8.43 4.923-8.43.15 0 2.239 3.804 9.028 16.785l8.132 4.477c4.55 2.462 8.206 4.625 8.206 4.85 0 .223-3.73 2.386-16.488 9.325l-9.027 17.159-9.325-17.159-6.267-3.507c-3.432-1.865-7.311-4.028-10.743-5.894l17.084-9.25Z"/></g><defs><filter id="a" x="23.5" y="25.5" width="217.5" height="190.489" filterUnits="userSpaceOnUse" color-interpolation-filters="sRGB"><feFlood flood-opacity="0" result="BackgroundImageFix"/><feColorMatrix in="SourceAlpha" values="0 0 0 0 0 0 0 0 0 0 0 0 0 0 0 0 0 0 127 0" result="hardAlpha"/><feOffset/><feGaussianBlur stdDeviation="7"/><feComposite in2="hardAlpha" operator="out"/><feColorMatrix values="0 0 0 0 0.996078 0 0 0 0 0.882353 0 0 0 0 0.00784314 0 0 0 0.55 0"/><feBlend in2="BackgroundImageFix" result="effect1_dropShadow_1996_10"/><feBlend in="SourceGraphic" in2="effect1_dropShadow_1996_10" result="shape"/></filter></defs></svg>